<svg width="180" height="48" viewBox="0 0 180 48" fill="none" xmlns="http://www.w3.org/2000/svg">
  <!-- Icono Corporativo: Moneda con flechas de cambio -->
  <g id="logo-icon" transform="translate(0, 8)">
    <!-- Moneda circular con gradiente -->
    <defs>
      <linearGradient id="coinGradient" x1="0%" y1="0%" x2="100%" y2="100%">
        <stop offset="0%" style="stop-color:#007bff;stop-opacity:1" />
        <stop offset="100%" style="stop-color:#0056b3;stop-opacity:1" />
      </linearGradient>
      <linearGradient id="arrowGradient" x1="0%" y1="0%" x2="100%" y2="100%">
        <stop offset="0%" style="stop-color:#28a745;stop-opacity:1" />
        <stop offset="100%" style="stop-color:#1e7e34;stop-opacity:1" />
      </linearGradient>
    </defs>

    <!-- Círculo principal de la moneda -->
    <circle cx="20" cy="16" r="15" fill="url(#coinGradient)" stroke="#0056b3" stroke-width="1.5"/>

    <!-- Símbolo de dólar moderno -->
    <text x="20" y="21" text-anchor="middle" fill="white" font-family="Arial, sans-serif" font-size="12" font-weight="bold">$</text>

    <!-- Flechas de cambio alrededor -->
    <g transform="translate(20, 16)">
      <!-- Flecha superior -->
      <path d="M-8,-12 L-5,-15 L-3,-13 L-8,-8 L-13,-13 L-11,-15 Z" fill="url(#arrowGradient)"/>
      <!-- Flecha inferior -->
      <path d="M8,12 L11,15 L13,13 L8,8 L3,13 L5,15 Z" fill="url(#arrowGradient)"/>
      <!-- Flecha izquierda -->
      <path d="M-12,-8 L-15,-5 L-13,-3 L-8,-8 L-13,-13 L-15,-11 Z" fill="url(#arrowGradient)"/>
      <!-- Flecha derecha -->
      <path d="M12,8 L15,11 L13,13 L8,8 L13,3 L15,5 Z" fill="url(#arrowGradient)"/>
    </g>
  </g>

  <!-- Texto Corporativo: TasaReal -->
  <g id="logo-text" transform="translate(48, 0)">
    <!-- Tasa -->
    <text x="0" y="20" fill="#007bff" font-family="Arial, sans-serif" font-size="18" font-weight="700">Tasa</text>
    <!-- Real -->
    <text x="0" y="38" fill="#333333" font-family="Arial, sans-serif" font-size="16" font-weight="600">Real</text>
  </g>
</svg>
